<svg xmlns="http://www.w3.org/2000/svg" viewBox="0 0 64 64" xmlns:v="https://vecta.io/nano"><path d="M63.5 12c-.5-.9-1.3-1.6-2.3-2L39.1 3l-.1-.2C38.3.7 36.1-.5 34 .2L2.8 10.1c-2.1.7-3.3 2.9-2.6 5l14.6 46.1c.5 1.7 2.1 2.8 3.8 2.8.4 0 .8-.1 1.2-.2L32 60l12.2 3.8c.4.1.8.2 1.2.2 1.7 0 3.3-1.1 3.8-2.8l2.4-7.5c1.8-.9 2.6-2.9 2-4.8l-.2-.8L63.9 15c.2-.9.1-2-.4-3zM46.7 60.4c-.2.7-1 1.1-1.7.9l-8.6-2.7 12-3.8-1.7 5.6zm4.3-9.6a1.85 1.85 0 0 1-.8.7l-18.5 5.9h-.1l-12.5 4c-.7.2-1.5-.2-1.7-.9L2.7 14.3c-.1-.3-.1-.7.1-1s.4-.6.8-.7l31.1-9.9c.7-.2 1.4.2 1.7.9L51 49.7c.1.4.1.7 0 1.1h0zm-8.5-37l11 3.5-4.9 15.6-6.1-19.1zm18.8.5L52 43.8l-2-6.4 6-19.3c.4-1.4-.3-2.9-1.7-3.3l-12.5-4c-.1 0-.2 0-.3-.1L40 6.1l20.4 6.4c.3.1.6.3.8.7.1.4.2.7.1 1.1h0zM27.2 23c-1.1.3-2 1-2.6 2-2.5-1-5.4.3-6.4 2.8-.4 1-.4 2.2-.1 3.3.4 1.3 1.4 2.4 2.7 2.9l5.5 2.3c.3.1.7.2 1 .2s.6 0 .8-.1c.6-.2 1.1-.6 1.5-1.1l3.2-5c.7-1.2.9-2.6.5-3.9-.8-2.8-3.5-4.2-6.1-3.4h0zm3.4 5.7l-3.2 5h-.1l-5.5-2.3c-.5-.2-.9-.7-1.1-1.2-.4-1.2.3-2.5 1.5-2.8.2-.1.5-.1.7-.1.5 0 1.1.2 1.5.6.6.5 1.4.4 1.9-.1l.3-.6c.3-1.2 1.5-2 2.7-1.7.8.2 1.4.8 1.6 1.5.1.6 0 1.2-.3 1.7h0zm3.7-18.9C33.9 8.3 32.4 7.6 31 8L9.8 14.7c-1.4.4-2.2 1.9-1.7 3.3L18 49.2c.4 1.1 1.4 1.9 2.5 1.9.3 0 .5 0 .8-.1l21.2-6.7c1.4-.4 2.2-1.9 1.7-3.3L34.3 9.8zM20.4 48.4l-9.9-31.2L22 13.7l9.8-3.1 9.9 31.2-21.3 6.6z" fill-rule="evenodd" fill="#4086d3"/></svg>