<svg xmlns="http://www.w3.org/2000/svg" width="65" height="65" xmlns:v="https://vecta.io/nano"><path d="M42.6 31l2.86-2.86.52.02c1.692.002 3.316-.67 4.5-1.87l2.73-2.73c2.5-2.495 2.5-6.535 0-9.03L40.57 1.87a6.39 6.39 0 0 0-9.03 0L28.82 4.6a6.35 6.35 0 0 0-1.85 5.02L9.62 26.97l-.5-.02c-1.696-.007-3.324.667-4.52 1.87l-2.72 2.72c-2.5 2.495-2.5 6.535 0 9.03l12.65 12.66a6.39 6.39 0 0 0 9.03 0l2.73-2.73c1.2-1.194 1.872-2.818 1.87-4.5l-.02-.5L31 42.6 51.5 63.13a6.39 6.39 0 0 0 9.03 0l2.6-2.6c2.5-2.495 2.5-6.535 0-9.03zm-14.9 8.25l-5.15 5.16.4.4c.65.656.65 1.714 0 2.37l-2.73 2.73a1.67 1.67 0 0 1-1.19.49c-.444.004-.87-.173-1.18-.5L5.2 37.25a1.7 1.7 0 0 1 0-2.38l2.73-2.72c.314-.318.743-.498 1.2-.5s.87.18 1.18.5l.4.4L32.54 10.7l-.4-.4a1.7 1.7 0 0 1 0-2.38l2.73-2.72a1.69 1.69 0 0 1 2.38 0L49.9 17.85a1.68 1.68 0 0 1 0 2.38l-2.73 2.72c-.3.317-.736.494-1.18.5a1.67 1.67 0 0 1-1.19-.49l-.4-.4-8.62 8.62-4.62 4.6zM59.8 57.2l-2.6 2.6a1.69 1.69 0 0 1-2.38 0l-20.5-20.5 4.97-4.97 20.5 20.5a1.68 1.68 0 0 1 0 2.38z" fill="#3172b9" fill-rule="evenodd"/></svg>