<svg xmlns="http://www.w3.org/2000/svg" width="68" height="66" xmlns:v="https://vecta.io/nano"><path d="M50.393 0C40.465-.236 32.206 7.584 31.9 17.5l-.124 4.97c-.006 1.356 1.076 2.466 2.43 2.496s2.485-1.032 2.54-2.386l.125-4.97a13.08 13.08 0 0 1 22.503-8.896 13.08 13.08 0 0 1-9.751 22.146L18.5 30.2A17.91 17.91 0 0 0 .295 47.773 17.91 17.91 0 0 0 17.84 66.006 17.91 17.91 0 0 0 36.1 48.49l.123-4.92c.03-1.373-1.058-2.5-2.43-2.54s-2.5 1.058-2.54 2.43l-.123 4.92a13.08 13.08 0 0 1-22.503 8.896 13.08 13.08 0 0 1 9.751-22.146l31.123.67c6.424.205 12.464-3.048 15.828-8.525s3.535-12.335.448-17.972S56.82.116 50.393 0z" fill="#3172b9" fill-rule="evenodd"/></svg>