<svg xmlns="http://www.w3.org/2000/svg" width="86" height="64" xmlns:v="https://vecta.io/nano"><path d="M73.693 5.94A20.21 20.21 0 0 0 59.381 0 20.21 20.21 0 0 0 45.07 5.94l-1.607 1.6-1.607-1.6A20.21 20.21 0 0 0 27.544 0a20.21 20.21 0 0 0-14.312 5.94c-7.892 7.927-7.892 20.743 0 28.67l28.722 28.76a2.12 2.12 0 0 0 3.017 0l28.72-28.76c7.905-7.922 7.905-20.748 0-28.67zM70.678 31.6L43.463 58.84 16.248 31.6a16.04 16.04 0 0 1 0-22.63 15.95 15.95 0 0 1 22.593 0l3.114 3.12a2.14 2.14 0 0 0 3.015 0l3.115-3.12a15.95 15.95 0 0 1 22.593 0 16.04 16.04 0 0 1 0 22.63zM9.95 26.98H2.132c-1.18 0-2.135.956-2.135 2.135s.956 2.135 2.135 2.135H9.95c1.18 0 2.135-.956 2.135-2.135S11.13 26.98 9.95 26.98zm66.81.07H56.352l-3.176-7c-.236-.53-.773-.864-1.354-.84s-1.088.4-1.28.95l-6.5 18.32-7.89-21.9a1.43 1.43 0 0 0-1.27-.94c-.578-.036-1.118.29-1.353.82l-5.3 11.28H10.66c-.378.001-.74.152-1.007.42s-.416.63-.414 1.01c.152.82.89 1.397 1.72 1.35h18.48a.98.98 0 0 0 .987-.75l4.227-9 8.076 22.4a1.43 1.43 0 0 0 1.337.94h0a1.43 1.43 0 0 0 1.335-.95l6.642-18.75 2.1 4.62c.365.51.966.8 1.593.77H77.06a1.14 1.14 0 0 0 1.121-1.36c-.002-.784-.637-1.42-1.42-1.42zm7.11-.78h-6.4c-1.18 0-2.135.956-2.135 2.135s.956 2.135 2.135 2.135h6.4c1.18 0 2.135-.956 2.135-2.135s-.956-2.135-2.135-2.135z" fill="#3172b9" fill-rule="evenodd"/></svg>